<?xml version="1.0" encoding="UTF-8"?>
<svg version="1.1" xmlns="http://www.w3.org/2000/svg" width="736" height="736">
<path d="M0 0 C242.88 0 485.76 0 736 0 C736 242.88 736 485.76 736 736 C493.12 736 250.24 736 0 736 C0 493.12 0 250.24 0 0 Z " fill="#FEFEFE" transform="translate(0,0)"/>
<path d="M0 0 C-3.23483212 3.3616114 -6.3347041 5.49602359 -10.4375 7.75 C-11.70930006 8.45920666 -12.98011488 9.17018266 -14.25 9.8828125 C-15.20326172 10.41696777 -15.20326172 10.41696777 -16.17578125 10.96191406 C-19.89689368 13.07944218 -23.51561242 15.36305036 -27.15234375 17.62109375 C-32.08039367 20.6779015 -37.0431636 23.67769977 -42 26.6875 C-49.58562457 31.29667468 -57.14849655 35.93998726 -64.6875 40.625 C-71.42353133 44.809791 -78.19122422 48.93466005 -85 53 C-91.95219902 57.15196007 -98.86665389 61.35980161 -105.75 65.625 C-106.62140625 66.16487549 -107.4928125 66.70475098 -108.390625 67.26098633 C-112.505266 69.8152086 -116.6113504 72.38194968 -120.703125 74.97265625 C-121.79608887 75.66270752 -121.79608887 75.66270752 -122.91113281 76.36669922 C-124.25660585 77.2174483 -125.59988863 78.07167629 -126.94042969 78.93017578 C-130.20010845 80.99100345 -133.36084264 82.71113177 -137 84 C-135.48787903 80.00304867 -133.21953561 78.54055487 -129.6875 76.25 C-123.56259505 72.17288483 -117.70770162 67.79599258 -111.875 63.3125 C-105.13251469 58.13849732 -98.35843817 53.01937243 -91.5 48 C-84.60640437 42.95220274 -77.78661325 37.81571847 -71 32.625 C-64.06448255 27.32066701 -57.10193183 22.08012061 -50 17 C-49.29488281 16.47792969 -48.58976563 15.95585937 -47.86328125 15.41796875 C-43.22124656 12 -43.22124656 12 -41 12 C-41 11.34 -41 10.68 -41 10 C-237.68 10 -434.36 10 -637 10 C-637 9.01 -637 8.02 -637 7 C-636.44130093 6.99576806 -635.88260185 6.99153612 -635.3069725 6.98717594 C-554.9478768 6.40917652 -554.9478768 6.40917652 -474.5917511 5.52918625 C-472.44215517 5.50088418 -470.29255134 5.47327741 -468.14294434 5.4458313 C-454.86124876 5.27481285 -441.58119933 5.0647955 -428.30175781 4.76367188 C-399.088067 4.10428214 -369.88019832 3.75958481 -340.65991211 3.55444336 C-327.49195732 3.46182953 -314.32410749 3.35539715 -301.15625 3.25 C-299.85228775 3.23964218 -298.5483255 3.22928436 -297.20484924 3.21861267 C-274.4317198 3.03718066 -251.6594002 2.81452441 -228.8873291 2.52963257 C-226.5762607 2.50094658 -224.26518366 2.47311441 -221.95410156 2.44555664 C-208.06579568 2.27889699 -194.17905964 2.07983933 -180.29321289 1.76586914 C-148.66884411 1.05273772 -117.04865925 0.70400686 -85.41729736 0.46777344 C-80.05825073 0.42700836 -74.69923086 0.383218 -69.34020901 0.33933926 C-62.82968143 0.2860582 -56.31913755 0.23484619 -49.80859375 0.18359375 C-48.61385374 0.17403593 -47.41911373 0.16447811 -46.18816948 0.15463066 C-30.7918 0.03288812 -15.39685565 -0.02660798 0 0 Z " fill="#08090D" transform="translate(703,329)"/>
<path d="M0 0 C1.81737624 1.81737624 1.49604208 4.65790504 1.75390625 7.1171875 C1.88603516 8.36371094 2.01816406 9.61023438 2.15429688 10.89453125 C2.22124756 11.54760254 2.28819824 12.20067383 2.35717773 12.87353516 C2.56097959 14.86017915 2.77167526 16.84611196 2.98242188 18.83203125 C4 28.54664409 4 28.54664409 4 32 C4.66 32 5.32 32 6 32 C6.09474609 31.17435547 6.09474609 31.17435547 6.19140625 30.33203125 C7.73479075 19.85326281 11.52850471 9.96355224 15 0 C19.18726294 -0.11679952 23.37410301 -0.18745327 27.5625 -0.25 C29.33463867 -0.30027344 29.33463867 -0.30027344 31.14257812 -0.3515625 C37.9801326 -0.42817375 42.51104314 -0.25256342 48 4 C49.45147903 6.90295805 49.37239025 8.77261779 49 12 C47.18689858 14.92937654 45.12704101 17.43647949 42 19 C42.53337536 21.93356449 43.21002291 24.6534046 44.125 27.5 C45 31 45 31 44 36 C39.71 36 35.42 36 31 36 C30.01 31.71 29.02 27.42 28 23 C26.68 22.67 25.36 22.34 24 22 C22.35 26.62 20.7 31.24 19 36 C9.43 36 -0.14 36 -10 36 C-10 34.35 -10 32.7 -10 31 C-12.44012105 31.06002758 -14.87413526 31.14700204 -17.3125 31.25 C-18.00279297 31.26417969 -18.69308594 31.27835937 -19.40429688 31.29296875 C-21.69686723 31.36309412 -21.69686723 31.36309412 -25 32 C-25.7425 33.00546875 -25.7425 33.00546875 -26.5 34.03125 C-26.995 34.6809375 -27.49 35.330625 -28 36 C-30.71229503 36.29642569 -32.99739732 36.38061189 -35.6875 36.25 C-36.38939453 36.23195313 -37.09128906 36.21390625 -37.81445312 36.1953125 C-39.54355436 36.14826213 -41.27195205 36.07651873 -43 36 C-40.02872865 29.48094196 -34.87065037 24.1976964 -30.2734375 18.7734375 C-29.57577271 17.94996826 -29.57577271 17.94996826 -28.86401367 17.10986328 C-27.91190302 15.99366305 -26.95368999 14.88263983 -25.98950195 13.77685547 C-23.20780411 10.56089222 -20.97357993 7.32296744 -18.75 3.6875 C-14.33524826 -2.2604537 -6.62888567 -0.87613701 0 0 Z " fill="#0C0E12" transform="translate(148,349)"/>
<path d="M0 0 C9.9 0 19.8 0 30 0 C28 9 28 9 27 10 C24.47403741 10.23653523 21.96892793 10.42173692 19.4375 10.5625 C18.72658203 10.60568359 18.01566406 10.64886719 17.28320312 10.69335938 C15.52238088 10.79971777 13.7612168 10.90038846 12 11 C11.67 11.99 11.34 12.98 11 14 C15.29 14 19.58 14 24 14 C23.34 16.64 22.68 19.28 22 22 C17.38 22.33 12.76 22.66 8 23 C7.67 24.32 7.34 25.64 7 27 C11.07530467 26.8816491 15.15038235 26.75739376 19.2253418 26.62768555 C20.61135983 26.58439782 21.99742906 26.54271836 23.38354492 26.50268555 C25.37691798 26.44483416 27.37010565 26.38070224 29.36328125 26.31640625 C30.56251221 26.27974854 31.76174316 26.24309082 32.99731445 26.20532227 C36.04994349 26.12266975 36.04994349 26.12266975 39 25 C39.33 24.34 39.66 23.68 40 23 C39.113125 22.773125 38.22625 22.54625 37.3125 22.3125 C33.44679989 20.7808075 31.58215727 19.24614056 29 16 C27.8125 13.125 27.8125 13.125 28 10 C30.71346277 5.06738745 34.52425053 2.07715984 39.86328125 0.4296875 C46.57589919 -0.92019911 52.50633071 0.11093257 59 2 C58.34 4.97 57.68 7.94 57 11 C55.33388095 11.042721 53.66617115 11.04063832 52 11 C51.505 10.505 51.505 10.505 51 10 C48.66702567 9.95907063 46.33294775 9.95758277 44 10 C44 10.99 44 11.98 44 13 C44.71027344 13.34933594 45.42054688 13.69867188 46.15234375 14.05859375 C47.07144531 14.51363281 47.99054687 14.96867187 48.9375 15.4375 C49.85402344 15.88996094 50.77054688 16.34242188 51.71484375 16.80859375 C54 18 54 18 55 19 C55.50138759 23.2617945 55.32065531 25.45488597 53.125 29.1875 C48.19953586 34.3540228 41.12495062 36.20150401 34.18310547 36.45410156 C32.07769325 36.45347812 29.97220355 36.43147124 27.8671875 36.390625 C26.74933868 36.38496521 25.63148987 36.37930542 24.47976685 36.37347412 C20.94439039 36.3512622 17.41006496 36.30109311 13.875 36.25 C11.46355641 36.22991543 9.05209677 36.21166811 6.640625 36.1953125 C0.76006412 36.15144736 -5.11989282 36.08468875 -11 36 C-10.68783863 34.55852753 -10.37344316 33.11753876 -10.05810547 31.67675781 C-9.8832663 30.87425598 -9.70842712 30.07175415 -9.52828979 29.24493408 C-8.91881608 26.65501406 -8.09209494 24.22768124 -7.125 21.75 C-5.13686783 16.47809895 -3.45905126 11.14315001 -1.83203125 5.75 C-1.24948718 3.82459614 -0.63612401 1.90837204 0 0 Z " fill="#0C0E12" transform="translate(541,349)"/>
<path d="M0 0 C4.02069425 -0.08765069 8.0411401 -0.14061018 12.0625 -0.1875 C13.7630957 -0.22520508 13.7630957 -0.22520508 15.49804688 -0.26367188 C21.76082441 -0.31844835 26.53380633 -0.20218154 32 3 C33.63407057 6.26814113 33.8301684 9.49772707 33 13 C30.95332217 15.43554662 28.63102099 17.2280879 26 19 C27.39759905 22.54518884 27.39759905 22.54518884 29 26 C29.039992 27.99960012 29.04346799 30.00047242 29 32 C29.66 32 30.32 32 31 32 C31.0825 31.10023438 31.165 30.20046875 31.25 29.2734375 C32.07281889 23.522397 34.13241147 18.10369501 36 12.625 C36.36867188 11.52027344 36.73734375 10.41554688 37.1171875 9.27734375 C39.85949096 1.14050904 39.85949096 1.14050904 41 0 C43.35313555 -0.07271741 45.70833668 -0.08370868 48.0625 -0.0625 C49.35285156 -0.05347656 50.64320313 -0.04445313 51.97265625 -0.03515625 C52.97167969 -0.02355469 53.97070312 -0.01195312 55 0 C54.41832029 4.79733486 53.45493716 9.17792139 51.96875 13.7734375 C51.57042969 15.00964844 51.17210937 16.24585938 50.76171875 17.51953125 C50.45113525 18.46820068 50.45113525 18.46820068 50.13427734 19.43603516 C49.49548046 21.38881607 48.86626575 23.34449959 48.23828125 25.30078125 C45.13823515 34.86176485 45.13823515 34.86176485 44 36 C41.85441173 36.08775605 39.70595579 36.10695219 37.55859375 36.09765625 C36.25341797 36.09443359 34.94824219 36.09121094 33.60351562 36.08789062 C32.2148431 36.07953401 30.82617123 36.07106905 29.4375 36.0625 C28.04492344 36.05748666 26.65234519 36.05292347 25.25976562 36.04882812 C21.8398013 36.03699434 18.41992156 36.0205088 15 36 C14.80083984 34.73542969 14.80083984 34.73542969 14.59765625 33.4453125 C14.42105469 32.34960938 14.24445313 31.25390625 14.0625 30.125 C13.88847656 29.03445313 13.71445312 27.94390625 13.53515625 26.8203125 C13.14448841 24.06178454 13.14448841 24.06178454 12 22 C11.01 22 10.02 22 9 22 C8.72285156 22.92683594 8.44570313 23.85367187 8.16015625 24.80859375 C7.79792969 26.00613281 7.43570312 27.20367187 7.0625 28.4375 C6.70285156 29.63246094 6.34320313 30.82742188 5.97265625 32.05859375 C5 35 5 35 4 36 C1.46950598 36.07313567 -1.03304837 36.09247527 -3.5625 36.0625 C-4.62887695 36.05573242 -4.62887695 36.05573242 -5.71679688 36.04882812 C-7.47790013 36.03700864 -9.23896036 36.01907263 -11 36 C-10.00685574 30.95249034 -8.81381426 26.17738139 -6.92578125 21.375 C-5.69036829 18.20567055 -4.53130844 15.01150894 -3.375 11.8125 C-2.94960938 10.64332031 -2.52421875 9.47414063 -2.0859375 8.26953125 C-1.16449347 5.49525551 -0.53899884 2.86339327 0 0 Z " fill="#0C0D12" transform="translate(483,349)"/>
<path d="M0 0 C1.81419434 0.00636726 1.81419434 0.00636726 3.66503906 0.01286316 C7.50609134 0.02957837 11.34660784 0.0672186 15.1875 0.10546875 C17.80077364 0.12052478 20.41405555 0.13421158 23.02734375 0.14648438 C29.41424352 0.17945853 35.80083347 0.22958691 42.1875 0.29296875 C41.87951674 1.77308246 41.565982 3.252042 41.25 4.73046875 C41.07597656 5.55417969 40.90195313 6.37789063 40.72265625 7.2265625 C40.1875 9.29296875 40.1875 9.29296875 39.1875 10.29296875 C37.16785801 10.36540928 35.14582876 10.37674063 33.125 10.35546875 C31.46791016 10.34193359 31.46791016 10.34193359 29.77734375 10.328125 C28.92269531 10.31652344 28.06804687 10.30492187 27.1875 10.29296875 C26.960625 11.44796875 26.73375 12.60296875 26.5 13.79296875 C25.45055681 18.5382771 24.06767467 23.1557633 22.625 27.79296875 C22.40303955 28.51162109 22.1810791 29.23027344 21.95239258 29.97070312 C20.31325354 35.16721521 20.31325354 35.16721521 19.1875 36.29296875 C16.65700598 36.36610442 14.15445163 36.38544402 11.625 36.35546875 C10.91408203 36.35095703 10.20316406 36.34644531 9.47070312 36.34179688 C7.70959987 36.32997739 5.94853964 36.31204138 4.1875 36.29296875 C4.72346367 32.78165535 5.33759231 29.46281387 6.5 26.10546875 C6.76039062 25.35007812 7.02078125 24.5946875 7.2890625 23.81640625 C8.89729697 19.29936508 10.53518585 14.7941004 12.1875 10.29296875 C4.5975 10.62296875 -2.9925 10.95296875 -10.8125 11.29296875 C-10.8125 11.95296875 -10.8125 12.61296875 -10.8125 13.29296875 C-9.12150174 14.55132139 -9.12150174 14.55132139 -7 15.73046875 C-4.23469412 17.33726761 -1.87943419 18.82536732 0.1875 21.29296875 C0.91654146 25.39382695 0.40406738 26.95827371 -1.875 30.48046875 C-4.90485563 34.18362563 -9.36094132 35.99415705 -14.01782227 36.56176758 C-16.37360046 36.65810977 -18.70540367 36.6537699 -21.0625 36.60546875 C-21.86429688 36.60869141 -22.66609375 36.61191406 -23.4921875 36.61523438 C-27.42195397 36.57909104 -29.47768396 36.51617944 -32.8125 34.29296875 C-32.1525 31.32296875 -31.4925 28.35296875 -30.8125 25.29296875 C-25.5325 25.62296875 -20.2525 25.95296875 -14.8125 26.29296875 C-14.8125 25.30296875 -14.8125 24.31296875 -14.8125 23.29296875 C-15.885 23.06609375 -16.9575 22.83921875 -18.0625 22.60546875 C-22.29422749 21.12436413 -23.65271131 20.18058839 -25.8125 16.29296875 C-26.54440472 11.82021771 -26.19758563 9.9187329 -23.8125 6.04296875 C-17.38223612 -0.66686277 -8.61075712 -0.11476282 0 0 Z " fill="#0B0C10" transform="translate(80.8125,348.70703125)"/>
<path d="M0 0 C1.21229279 0.0028299 2.42458557 0.00565979 3.6736145 0.00857544 C7.53511539 0.01974583 11.39638203 0.04484513 15.2578125 0.0703125 C17.88020498 0.08034634 20.5026011 0.08947148 23.125 0.09765625 C29.54435039 0.11967492 35.9635647 0.15312152 42.3828125 0.1953125 C41.75019567 3.88557734 40.81190891 6.62257147 39.3828125 10.1953125 C35.4228125 10.1953125 31.4628125 10.1953125 27.3828125 10.1953125 C27.228125 11.63777344 27.228125 11.63777344 27.0703125 13.109375 C26.40171067 17.7825251 24.91246838 22.11843666 23.3828125 26.5703125 C23.10953125 27.38886719 22.83625 28.20742188 22.5546875 29.05078125 C20.52355498 35.05457002 20.52355498 35.05457002 19.3828125 36.1953125 C16.85231848 36.26844817 14.34976413 36.28778777 11.8203125 36.2578125 C11.10939453 36.25330078 10.39847656 36.24878906 9.66601562 36.24414062 C7.90491237 36.23232114 6.14385214 36.21438513 4.3828125 36.1953125 C4.91877617 32.6839991 5.53290481 29.36515762 6.6953125 26.0078125 C6.95570313 25.25242187 7.21609375 24.49703125 7.484375 23.71875 C9.09260947 19.20170883 10.73049835 14.69644415 12.3828125 10.1953125 C4.7928125 10.5253125 -2.7971875 10.8553125 -10.6171875 11.1953125 C-10.6171875 11.8553125 -10.6171875 12.5153125 -10.6171875 13.1953125 C-8.92618924 14.45366514 -8.92618924 14.45366514 -6.8046875 15.6328125 C-4.03938162 17.23961136 -1.68412169 18.72771107 0.3828125 21.1953125 C1.11185396 25.2961707 0.59937988 26.86061746 -1.6796875 30.3828125 C-4.63348099 33.99300454 -9.06297172 35.87288131 -13.61889648 36.44799805 C-15.68933435 36.52451584 -17.73393651 36.50753225 -19.8046875 36.4453125 C-20.85172852 36.43757813 -20.85172852 36.43757813 -21.91992188 36.4296875 C-25.37055883 36.3771564 -28.24654002 36.03797437 -31.6171875 35.1953125 C-31.2871875 31.8953125 -30.9571875 28.5953125 -30.6171875 25.1953125 C-25.3371875 25.5253125 -20.0571875 25.8553125 -14.6171875 26.1953125 C-14.9471875 25.2053125 -15.2771875 24.2153125 -15.6171875 23.1953125 C-17.93698131 22.16429303 -20.27148665 21.16594733 -22.6171875 20.1953125 C-24.5546875 18.9453125 -24.5546875 18.9453125 -25.6171875 17.1953125 C-25.99719084 13.01527579 -26.12844783 9.66324344 -23.6171875 6.1953125 C-16.56873936 -0.46155519 -9.17360427 -0.08079172 0 0 Z " fill="#0B0D12" transform="translate(439.6171875,348.8046875)"/>
<path d="M0 0 C4.8269321 -0.6711605 9.19945759 -0.94876456 14 0 C17.55897741 3.20147893 19.63450915 6.88273506 22 11 C23.58723994 12.78874349 23.58723994 12.78874349 25 14 C25.27714844 13.07316406 25.55429687 12.14632813 25.83984375 11.19140625 C26.20207031 9.99386719 26.56429687 8.79632813 26.9375 7.5625 C27.29714844 6.36753906 27.65679687 5.17257812 28.02734375 3.94140625 C29 1 29 1 30 0 C32.53049402 -0.07313567 35.03304837 -0.09247527 37.5625 -0.0625 C38.62887695 -0.05573242 38.62887695 -0.05573242 39.71679688 -0.04882812 C41.47790013 -0.03700864 43.23896036 -0.01907263 45 0 C42.86405563 8.15141934 40.40917346 16.17209024 37.8125 24.1875 C37.26045898 25.90163086 37.26045898 25.90163086 36.69726562 27.65039062 C35.80035596 30.43430503 34.90123427 33.21748323 34 36 C31.58145554 36.13536629 29.17050217 36.23420279 26.75 36.3125 C26.06808594 36.35439453 25.38617188 36.39628906 24.68359375 36.43945312 C22.671875 36.48828125 22.671875 36.48828125 19 36 C16.6796875 33.74609375 16.6796875 33.74609375 15 31 C14.53335937 30.27296875 14.06671875 29.5459375 13.5859375 28.796875 C12.77273058 27.42229297 11.96024058 26.04728658 11.1484375 24.671875 C10.09135286 22.84399588 10.09135286 22.84399588 8 22 C7.896875 22.639375 7.79375 23.27875 7.6875 23.9375 C6.75847169 28.07589884 5.37715676 31.98828247 4 36 C-0.95 36 -5.9 36 -11 36 C-9.89955357 29.39732143 -9.89955357 29.39732143 -8.3125 25.875 C-4.81617341 17.51477995 -2.52501295 8.69080109 0 0 Z " fill="#0A0B11" transform="translate(284,349)"/>
<path d="M0 0 C3.68734775 -0.08776185 7.37442347 -0.14064603 11.0625 -0.1875 C12.10083984 -0.21263672 13.13917969 -0.23777344 14.20898438 -0.26367188 C21.88244264 -0.33675243 26.53102211 0.63814271 32.9375 5 C36.06698107 9.55197247 35.92478201 13.6467903 35 19 C32.43701619 25.59375572 27.14791728 30.5165336 21.16015625 34.1015625 C16.66702218 35.97031627 11.97640002 36.12352903 7.1640625 36.09765625 C6.10058594 36.09443359 5.03710938 36.09121094 3.94140625 36.08789062 C2.84699219 36.07951172 1.75257813 36.07113281 0.625 36.0625 C-0.49261719 36.05798828 -1.61023438 36.05347656 -2.76171875 36.04882812 C-5.50786804 36.03709244 -8.25390586 36.02067363 -11 36 C-9.62247021 29.24321636 -7.73397408 22.8321524 -5.5 16.3125 C-5.19191406 15.40177734 -4.88382812 14.49105469 -4.56640625 13.55273438 C-3.97578489 11.80748627 -3.38343896 10.06282047 -2.7890625 8.31884766 C-1.84688218 5.5500269 -0.92073601 2.77601908 0 0 Z " fill="#0A0C10" transform="translate(333,349)"/>
<path d="M0 0 C4.95 0 9.9 0 15 0 C13.91039703 5.13669972 12.71421736 10.03021017 11 15 C12.50199504 13.81502441 14.00146555 12.62684888 15.5 11.4375 C16.42296875 10.71433594 17.3459375 9.99117188 18.296875 9.24609375 C20.96672174 7.12327095 20.96672174 7.12327095 22.953125 4.91015625 C26.10623918 1.55825879 27.92829991 0.12874319 32.609375 -0.43359375 C36.10152862 -0.43709993 39.52244285 -0.3077052 43 0 C41.60799376 3.25420124 40.066493 5.04246587 37.3046875 7.234375 C36.58925781 7.80800781 35.87382812 8.38164062 35.13671875 8.97265625 C34.39035156 9.55917969 33.64398438 10.14570313 32.875 10.75 C32.12089844 11.35199219 31.36679688 11.95398438 30.58984375 12.57421875 C28.7316437 14.05607449 26.86834546 15.53097132 25 17 C25.59095211 21.11422352 26.97783252 24.04706007 29.0625 27.625 C32 32.67058824 32 32.67058824 32 36 C26.39 36 20.78 36 15 36 C13.50260417 33.16796875 12.00520833 30.3359375 10.5078125 27.50390625 C9.24345886 24.89859558 9.24345886 24.89859558 7 24 C6.86722656 24.78246094 6.73445313 25.56492187 6.59765625 26.37109375 C6.42105469 27.38300781 6.24445313 28.39492188 6.0625 29.4375 C5.80146484 30.95150391 5.80146484 30.95150391 5.53515625 32.49609375 C5 35 5 35 4 36 C1.46950598 36.07313567 -1.03304837 36.09247527 -3.5625 36.0625 C-4.62887695 36.05573242 -4.62887695 36.05573242 -5.71679688 36.04882812 C-7.47790013 36.03700864 -9.23896036 36.01907263 -11 36 C-10.36645592 31.47566894 -9.23162539 27.38078159 -7.75 23.0625 C-7.30324634 21.75004733 -6.85663632 20.43754576 -6.41015625 19.125 C-6.1795752 18.45210938 -5.94899414 17.77921875 -5.71142578 17.0859375 C-4.51727683 13.58463048 -3.35417656 10.07303328 -2.1875 6.5625 C-1.465625 4.396875 -0.74375 2.23125 0 0 Z " fill="#0D0E12" transform="translate(205,349)"/>
<path d="M0 0 C1.39456452 0.00667256 2.78911118 0.01863093 4.18359375 0.03515625 C4.89451172 0.03966797 5.60542969 0.04417969 6.33789062 0.04882812 C8.09899388 0.06064761 9.86005411 0.07858362 11.62109375 0.09765625 C10.73296181 4.61145623 9.77977741 8.90805728 7.99609375 13.16015625 C6.35226459 17.26559892 6.38581787 20.7058399 6.62109375 25.09765625 C10.9110434 24.81925852 10.9110434 24.81925852 14.20629883 22.34863281 C15.6597042 20.036226 16.56782587 17.91482208 17.4453125 15.33203125 C17.90454102 13.99785156 17.90454102 13.99785156 18.37304688 12.63671875 C18.68177734 11.71632813 18.99050781 10.7959375 19.30859375 9.84765625 C19.7890918 8.44386719 19.7890918 8.44386719 20.27929688 7.01171875 C21.0663706 4.70923441 21.84460188 2.40373075 22.62109375 0.09765625 C27.57109375 0.09765625 32.52109375 0.09765625 37.62109375 0.09765625 C35.85432804 10.69825049 32.87394499 24.50122115 23.859375 31.45703125 C22.05859375 32.53515625 22.05859375 32.53515625 18.62109375 34.09765625 C17.87859375 34.45214844 17.13609375 34.80664062 16.37109375 35.171875 C12.88921664 36.34404102 9.85396435 36.43569381 6.18359375 36.47265625 C4.90613281 36.50101562 3.62867188 36.529375 2.3125 36.55859375 C-2.71078024 35.93134818 -5.6185709 33.74063591 -9.25390625 30.34765625 C-12.09131834 24.67283207 -10.13090858 18.39301474 -8.29492188 12.68945312 C-8.01326172 11.85478516 -7.73160156 11.02011719 -7.44140625 10.16015625 C-7.16361328 9.29841797 -6.88582031 8.43667969 -6.59960938 7.54882812 C-4.17033932 0.12053004 -4.17033932 0.12053004 0 0 Z " fill="#0D0D12" transform="translate(378.37890625,348.90234375)"/>
<path d="M0 0 C1.93166016 0.01740234 1.93166016 0.01740234 3.90234375 0.03515625 C5.19269531 0.04417969 6.48304688 0.05320312 7.8125 0.0625 C8.81152344 0.07410156 9.81054688 0.08570313 10.83984375 0.09765625 C10.25816404 4.89499111 9.29478091 9.27557764 7.80859375 13.87109375 C7.41027344 15.10730469 7.01195312 16.34351563 6.6015625 17.6171875 C6.290979 18.56585693 6.290979 18.56585693 5.97412109 19.53369141 C5.33532421 21.48647232 4.7061095 23.44215584 4.078125 25.3984375 C0.9780789 34.9594211 0.9780789 34.9594211 -0.16015625 36.09765625 C-2.30574452 36.1854123 -4.45420046 36.20460844 -6.6015625 36.1953125 C-7.90673828 36.19208984 -9.21191406 36.18886719 -10.55664062 36.18554688 C-11.94531315 36.17719026 -13.33398502 36.1687253 -14.72265625 36.16015625 C-16.11523281 36.15514291 -17.50781106 36.15057972 -18.90039062 36.14648438 C-22.32035495 36.13465059 -25.74023469 36.11816505 -29.16015625 36.09765625 C-29.26972656 35.2778125 -29.37929688 34.45796875 -29.4921875 33.61328125 C-29.65074219 32.535625 -29.80929687 31.45796875 -29.97265625 30.34765625 C-30.12347656 29.2803125 -30.27429688 28.21296875 -30.4296875 27.11328125 C-31.18240383 24.00581064 -32.26871115 22.59067844 -34.16015625 20.09765625 C-33.66515625 18.61265625 -33.66515625 18.61265625 -33.16015625 17.09765625 C-32.17015625 16.76765625 -31.18015625 16.43765625 -30.16015625 16.09765625 C-29.50015625 16.42765625 -28.84015625 16.75765625 -28.16015625 17.09765625 C-27.83015625 16.10765625 -27.50015625 15.11765625 -27.16015625 14.09765625 C-26.17015625 13.76765625 -25.18015625 13.43765625 -24.16015625 13.09765625 C-23.83015625 14.74765625 -23.50015625 16.39765625 -23.16015625 18.09765625 C-21.84015625 18.09765625 -20.52015625 18.09765625 -19.16015625 18.09765625 C-16.44624347 22.87123497 -14.59454479 26.44154162 -15.16015625 32.09765625 C-14.50015625 32.09765625 -13.84015625 32.09765625 -13.16015625 32.09765625 C-13.07765625 31.19789063 -12.99515625 30.298125 -12.91015625 29.37109375 C-12.08733736 23.62005325 -10.02774478 18.20135126 -8.16015625 12.72265625 C-7.60714844 11.06556641 -7.60714844 11.06556641 -7.04296875 9.375 C-3.92424493 0.12126838 -3.92424493 0.12126838 0 0 Z " fill="#080A0E" transform="translate(527.16015625,348.90234375)"/>
<path d="M0 0 C18.15 0 36.3 0 55 0 C53 9 53 9 52 10 C49.98035801 10.07244053 47.95832876 10.08377188 45.9375 10.0625 C44.28041016 10.04896484 44.28041016 10.04896484 42.58984375 10.03515625 C41.73519531 10.02355469 40.88054687 10.01195312 40 10 C39.773125 11.155 39.54625 12.31 39.3125 13.5 C38.26305681 18.24530835 36.88017467 22.86279455 35.4375 27.5 C35.21553955 28.21865234 34.9935791 28.93730469 34.76489258 29.67773438 C33.12575354 34.87424646 33.12575354 34.87424646 32 36 C29.46950598 36.07313567 26.96695163 36.09247527 24.4375 36.0625 C23.72658203 36.05798828 23.01566406 36.05347656 22.28320312 36.04882812 C20.52209987 36.03700864 18.76103964 36.01907263 17 36 C17.53596367 32.4886866 18.15009231 29.16984512 19.3125 25.8125 C19.57289062 25.05710937 19.83328125 24.30171875 20.1015625 23.5234375 C21.70979697 19.00639633 23.34768585 14.50113165 25 10 C17.74 10 10.48 10 3 10 C3 9.67 3 9.34 3 9 C10.26 8.67 17.52 8.34 25 8 C25 6.02 25 4.04 25 2 C16.75 1.67 8.5 1.34 0 1 C0 0.67 0 0.34 0 0 Z " fill="#14151B" transform="translate(68,349)"/>
<path d="M0 0 C1.21229279 0.0028299 2.42458557 0.00565979 3.6736145 0.00857544 C7.53511539 0.01974583 11.39638203 0.04484513 15.2578125 0.0703125 C17.88020498 0.08034634 20.5026011 0.08947148 23.125 0.09765625 C29.54435039 0.11967492 35.9635647 0.15312152 42.3828125 0.1953125 C42.3828125 0.5253125 42.3828125 0.8553125 42.3828125 1.1953125 C41.37803108 1.20744278 41.37803108 1.20744278 40.35295105 1.21981812 C33.3938772 1.30573944 26.4350923 1.4052375 19.47631836 1.51269531 C16.87773483 1.55102682 14.27909748 1.58587224 11.68041992 1.6171875 C7.94951107 1.66274716 4.2189741 1.72075712 0.48828125 1.78125 C-0.67741898 1.79280121 -1.8431192 1.80435242 -3.04414368 1.81625366 C-4.12503769 1.83612335 -5.2059317 1.85599304 -6.31958008 1.87646484 C-7.27222244 1.88978851 -8.22486481 1.90311218 -9.20637512 1.9168396 C-11.87760098 2.03990522 -11.87760098 2.03990522 -14.6171875 4.1953125 C-15.62960435 5.51924222 -16.63158139 6.85130417 -17.6171875 8.1953125 C-17.9471875 8.1953125 -18.2771875 8.1953125 -18.6171875 8.1953125 C-18.6171875 8.8553125 -18.6171875 9.5153125 -18.6171875 10.1953125 C-17.8540625 9.9890625 -17.0909375 9.7828125 -16.3046875 9.5703125 C-13.6171875 9.1953125 -13.6171875 9.1953125 -10.6171875 11.1953125 C-10.6171875 11.8553125 -10.6171875 12.5153125 -10.6171875 13.1953125 C-8.92618924 14.45366514 -8.92618924 14.45366514 -6.8046875 15.6328125 C-4.03938162 17.23961136 -1.68412169 18.72771107 0.3828125 21.1953125 C1.11185396 25.2961707 0.59937988 26.86061746 -1.6796875 30.3828125 C-4.63348099 33.99300454 -9.06297172 35.87288131 -13.61889648 36.44799805 C-15.68933435 36.52451584 -17.73393651 36.50753225 -19.8046875 36.4453125 C-20.85172852 36.43757813 -20.85172852 36.43757813 -21.91992188 36.4296875 C-25.37055883 36.3771564 -28.24654002 36.03797437 -31.6171875 35.1953125 C-31.2871875 31.8953125 -30.9571875 28.5953125 -30.6171875 25.1953125 C-25.3371875 25.5253125 -20.0571875 25.8553125 -14.6171875 26.1953125 C-14.9471875 25.2053125 -15.2771875 24.2153125 -15.6171875 23.1953125 C-17.93698131 22.16429303 -20.27148665 21.16594733 -22.6171875 20.1953125 C-24.5546875 18.9453125 -24.5546875 18.9453125 -25.6171875 17.1953125 C-25.99719084 13.01527579 -26.12844783 9.66324344 -23.6171875 6.1953125 C-16.56873936 -0.46155519 -9.17360427 -0.08079172 0 0 Z " fill="#0C0D11" transform="translate(439.6171875,348.8046875)"/>
<path d="M0 0 C0.66666667 1.33333333 1.33333333 2.66666667 2 4 C2.37125 4.680625 2.7425 5.36125 3.125 6.0625 C4 8 4 8 4 11 C1.90234375 12.57128906 1.90234375 12.57128906 -1.0625 14.265625 C-2.15699463 14.90048828 -3.25148926 15.53535156 -4.37915039 16.18945312 C-4.96842316 16.52468994 -5.55769592 16.85992676 -6.16482544 17.20532227 C-9.2886514 18.98356805 -12.39079617 20.79903464 -15.49609375 22.609375 C-16.4478373 23.16226196 -16.4478373 23.16226196 -17.41880798 23.72631836 C-23.37696881 27.19594673 -29.23044375 30.82257409 -35.0625 34.5 C-37.00773061 35.72278653 -38.95304403 36.94544134 -40.8984375 38.16796875 C-42.36941895 39.09295166 -42.36941895 39.09295166 -43.87011719 40.03662109 C-49.05254189 43.28756177 -54.24654353 46.51952627 -59.44992065 49.73681641 C-61.14754566 50.78776546 -62.84248397 51.84305047 -64.53735352 52.8984375 C-65.57045654 53.53652344 -66.60355957 54.17460937 -67.66796875 54.83203125 C-69.03344849 55.67858276 -69.03344849 55.67858276 -70.42651367 56.54223633 C-72.89802045 57.94223319 -75.33933615 59.01517963 -78 60 C-76.48787903 56.00304867 -74.21953561 54.54055487 -70.6875 52.25 C-64.56259505 48.17288483 -58.70770162 43.79599258 -52.875 39.3125 C-46.13251936 34.1385009 -39.35857863 29.01917674 -32.5 24 C-24.47632491 18.12785347 -16.55858398 12.12428804 -8.67578125 6.06445312 C-7.41121094 5.09475586 -7.41121094 5.09475586 -6.12109375 4.10546875 C-5.3727124 3.52949951 -4.62433105 2.95353027 -3.85327148 2.36010742 C-2 1 -2 1 0 0 Z " fill="#0B0C11" transform="translate(644,353)"/>
<path d="M0 0 C1.93166016 0.01740234 1.93166016 0.01740234 3.90234375 0.03515625 C5.19269531 0.04417969 6.48304688 0.05320312 7.8125 0.0625 C8.81152344 0.07410156 9.81054688 0.08570313 10.83984375 0.09765625 C10.23338061 5.68155464 8.81569858 10.61903412 6.96484375 15.91015625 C6.42065459 17.49828025 5.87767709 19.08681998 5.3359375 20.67578125 C4.94704346 21.81370117 4.94704346 21.81370117 4.55029297 22.97460938 C3.39216129 26.43547298 2.37333697 29.93345303 1.3828125 33.4453125 C0.83984375 35.09765625 0.83984375 35.09765625 -0.16015625 36.09765625 C-2.5132918 36.17037366 -4.86849293 36.18136493 -7.22265625 36.16015625 C-8.51300781 36.15113281 -9.80335938 36.14210938 -11.1328125 36.1328125 C-12.13183594 36.12121094 -13.13085938 36.10960937 -14.16015625 36.09765625 C-13.61841166 30.21774545 -12.36568721 25.23205864 -10.28515625 19.72265625 C-9.74030252 18.23636674 -9.19732452 16.74938822 -8.65625 15.26171875 C-8.3969873 14.55047852 -8.13772461 13.83923828 -7.87060547 13.10644531 C-6.6686291 9.70786746 -5.67060975 6.25637426 -4.703125 2.78515625 C-3.73617084 -0.2200538 -3.37524871 0.10430311 0 0 Z " fill="#0A0C11" transform="translate(270.16015625,348.90234375)"/>
<path d="M0 0 C1.0236264 0.00424484 1.0236264 0.00424484 2.06793213 0.00857544 C4.23817807 0.01973152 6.40800471 0.04482693 8.578125 0.0703125 C10.05337944 0.08034824 11.52864037 0.08947306 13.00390625 0.09765625 C16.61211442 0.11965563 20.22007875 0.15415367 23.828125 0.1953125 C23.168125 0.5253125 22.508125 0.8553125 21.828125 1.1953125 C22.323125 4.6603125 22.323125 4.6603125 22.828125 8.1953125 C14.49479167 8.1953125 6.16145833 8.1953125 -2.171875 8.1953125 C-2.171875 10.5053125 -2.171875 12.8153125 -2.171875 15.1953125 C-4.046875 16.2578125 -4.046875 16.2578125 -6.171875 17.1953125 C-6.831875 16.8653125 -7.491875 16.5353125 -8.171875 16.1953125 C-8.171875 15.5353125 -8.171875 14.8753125 -8.171875 14.1953125 C-10.68270614 15.45072807 -11.04312946 16.69594738 -12.171875 19.1953125 C-15.18452059 16.84168313 -16.09576842 15.65195196 -16.734375 11.8203125 C-15.98866379 7.01461803 -14.62865306 5.57352742 -11.171875 2.1953125 C-7.55579406 -0.22940806 -4.27519017 -0.03504254 0 0 Z " fill="#030509" transform="translate(71.171875,349.8046875)"/>
<path d="M0 0 C0.33 0.66 0.66 1.32 1 2 C1.66 2 2.32 2 3 2 C2.690625 2.53625 2.38125 3.0725 2.0625 3.625 C0.31976081 7.52053466 -0.52827419 10.52083228 0.9375 14.625 C3.77405304 17.8913338 7.06514543 19.32698582 11 21 C10.505 22.485 10.505 22.485 10 24 C6.58248347 25.13917218 3.96512063 25.11338481 0.36328125 25.09765625 C-0.93544922 25.09443359 -2.23417969 25.09121094 -3.57226562 25.08789062 C-4.94401108 25.07953531 -6.31575587 25.07107037 -7.6875 25.0625 C-9.07096195 25.05748335 -10.45442563 25.05292073 -11.83789062 25.04882812 C-15.22530395 25.03702529 -18.61263033 25.02056019 -22 25 C-21.67 23.35 -21.34 21.7 -21 20 C-16.38 20 -11.76 20 -7 20 C-6.67 18.02 -6.34 16.04 -6 14 C-5.67 13.34 -5.34 12.68 -5 12 C-9.29 12 -13.58 12 -18 12 C-17.67 10.68 -17.34 9.36 -17 8 C-12.05 7.67 -7.1 7.34 -2 7 C-1.34 4.69 -0.68 2.38 0 0 Z " fill="#DEDFE1" transform="translate(570,351)"/>
<path d="M0 0 C1.21229279 0.0028299 2.42458557 0.00565979 3.6736145 0.00857544 C7.53511539 0.01974583 11.39638203 0.04484513 15.2578125 0.0703125 C17.88020498 0.08034634 20.5026011 0.08947148 23.125 0.09765625 C29.54435039 0.11967492 35.9635647 0.15312152 42.3828125 0.1953125 C42.3828125 0.5253125 42.3828125 0.8553125 42.3828125 1.1953125 C41.37803108 1.20744278 41.37803108 1.20744278 40.35295105 1.21981812 C33.3938772 1.30573944 26.4350923 1.4052375 19.47631836 1.51269531 C16.87773483 1.55102682 14.27909748 1.58587224 11.68041992 1.6171875 C7.94951107 1.66274716 4.2189741 1.72075712 0.48828125 1.78125 C-0.67741898 1.79280121 -1.8431192 1.80435242 -3.04414368 1.81625366 C-4.12503769 1.83612335 -5.2059317 1.85599304 -6.31958008 1.87646484 C-7.27222244 1.88978851 -8.22486481 1.90311218 -9.20637512 1.9168396 C-11.87760098 2.03990522 -11.87760098 2.03990522 -14.6171875 4.1953125 C-15.62960435 5.51924222 -16.63158139 6.85130417 -17.6171875 8.1953125 C-17.9471875 8.1953125 -18.2771875 8.1953125 -18.6171875 8.1953125 C-18.6171875 8.8553125 -18.6171875 9.5153125 -18.6171875 10.1953125 C-17.8540625 9.9890625 -17.0909375 9.7828125 -16.3046875 9.5703125 C-13.6171875 9.1953125 -13.6171875 9.1953125 -10.6171875 11.1953125 C-10.6171875 11.8553125 -10.6171875 12.5153125 -10.6171875 13.1953125 C-8.6571594 14.83207507 -8.6571594 14.83207507 -6.6171875 16.1953125 C-7.9371875 16.1953125 -9.2571875 16.1953125 -10.6171875 16.1953125 C-11.99029457 17.48764857 -13.32753574 18.81968396 -14.6171875 20.1953125 C-15.2771875 20.1953125 -15.9371875 20.1953125 -16.6171875 20.1953125 C-16.6171875 20.8553125 -16.6171875 21.5153125 -16.6171875 22.1953125 C-19.63518244 21.85997973 -21.42600563 21.32965652 -23.9296875 19.5703125 C-26.25967394 16.29107233 -26.03954586 14.13732391 -25.6171875 10.1953125 C-24.39620669 6.31037357 -21.93081458 4.45460369 -18.6171875 2.1953125 C-12.65064385 -0.57098299 -6.43263235 -0.05665204 0 0 Z " fill="#242629" transform="translate(439.6171875,348.8046875)"/>
<path d="M0 0 C0.2475 0.639375 0.495 1.27875 0.75 1.9375 C1.81562433 4.18741541 1.81562433 4.18741541 4.125 4.75 C4.74375 4.8325 5.3625 4.915 6 5 C7.04071646 9.47508076 6.95999017 11.86224298 5 16 C4.39260278 18.12589028 4 19.79124283 4 22 C1.69 22 -0.62 22 -3 22 C-3.26554687 21.10796875 -3.53109375 20.2159375 -3.8046875 19.296875 C-4.15789062 18.12640625 -4.51109375 16.9559375 -4.875 15.75 C-5.22304688 14.58984375 -5.57109375 13.4296875 -5.9296875 12.234375 C-6.78532389 9.64872928 -7.6937546 7.37713126 -9 5 C-7.125 3.9375 -7.125 3.9375 -5 3 C-4.34 3.33 -3.68 3.66 -3 4 C-2.67 3.01 -2.34 2.02 -2 1 C-1.34 0.67 -0.68 0.34 0 0 Z " fill="#04050B" transform="translate(502,362)"/>
<path d="M0 0 C0.99 0.33 1.98 0.66 3 1 C2.01 2.485 2.01 2.485 1 4 C0.34 4 -0.32 4 -1 4 C-2.19131862 7.72287068 -2.4161035 11.11636736 -2 15 C0.92819997 18.09552568 3.99847979 19.62805022 8 21 C8 21.99 8 22.98 8 24 C5.89590361 24.02701408 3.79170822 24.04640223 1.6875 24.0625 C0.51574219 24.07410156 -0.65601563 24.08570313 -1.86328125 24.09765625 C-5 24 -5 24 -8 23 C-8.33 25.97 -8.66 28.94 -9 32 C-9.33 30.68 -9.66 29.36 -10 28 C-10.99 27.67 -11.98 27.34 -13 27 C-12.67604248 26.53198975 -12.35208496 26.06397949 -12.01831055 25.58178711 C-8.61317539 20.43973681 -6.57248818 15.4500221 -4.8125 9.5625 C-3.936879 6.67500828 -3.00993341 3.84617599 -2 1 C-1.34 0.67 -0.68 0.34 0 0 Z " fill="#EEEFF0" transform="translate(417,351)"/>
<path d="M0 0 C7.875 0.875 7.875 0.875 9 2 C8.75969277 8.12783425 7.13186429 10.76735854 3 15 C0.29120665 16.35439668 -2.00933268 16.06501451 -5 16 C-3.90301833 10.30860098 -2.45946923 5.25432063 0 0 Z " fill="#EFEFF1" transform="translate(345,359)"/>
<path d="M0 0 C0.99 0.66 1.98 1.32 3 2 C1.15550542 10.45768247 -1.50989238 18.07651242 -5 26 C-9.29 26 -13.58 26 -18 26 C-18 25.67 -18 25.34 -18 25 C-14.04 24.67 -10.08 24.34 -6 24 C-6.12375 22.411875 -6.2475 20.82375 -6.375 19.1875 C-6.44460937 18.29417969 -6.51421875 17.40085937 -6.5859375 16.48046875 C-6.86645036 13.75601501 -6.86645036 13.75601501 -9 11 C-8.89372588 7.81177646 -7.79783005 6.776549 -5.625 4.375 C-3 2 -3 2 0 0 Z " fill="#EBECED" transform="translate(198,360)"/>
<path d="M0 0 C1.32 1.65 2.64 3.3 4 5 C1.03 8.63 -1.94 12.26 -5 16 C-6.98 15.34 -8.96 14.68 -11 14 C-11.33 13.34 -11.66 12.68 -12 12 C-12.99 12.33 -13.98 12.66 -15 13 C-14.34 10.03 -13.68 7.06 -13 4 C-7.06 3.505 -7.06 3.505 -1 3 C-0.67 2.01 -0.34 1.02 0 0 Z " fill="#F4F5F4" transform="translate(121,355)"/>
<path d="M0 0 C0.99 0 1.98 0 3 0 C2.46689335 7.75427859 -0.04123683 14.68717849 -2.5625 22 C-2.99223702 23.26408497 -3.42127931 24.52840635 -3.84960938 25.79296875 C-4.89294728 28.86436798 -5.9432398 31.93319848 -7 35 C-8.32 34.34 -9.64 33.68 -11 33 C-9.15673239 25.50404505 -6.80595104 18.19755168 -4.375 10.875 C-4.06167725 9.9260083 -3.74835449 8.9770166 -3.42553711 7.99926758 C-3.12784424 7.11005615 -2.83015137 6.22084473 -2.5234375 5.3046875 C-2.25450684 4.50015137 -1.98557617 3.69561523 -1.70849609 2.86669922 C-1 1 -1 1 0 0 Z " fill="#E0DFE0" transform="translate(329,350)"/>
<path d="M0 0 C4.62 0 9.24 0 14 0 C13.40380045 4.86896303 12.43023178 9.32790951 11 14 C10.608125 13.525625 10.21625 13.05125 9.8125 12.5625 C7.59191626 10.64820367 5.86624291 10.38733012 3 10 C2.67 10.99 2.34 11.98 2 13 C1.34 11.68 0.68 10.36 0 9 C1.32 8.01 2.64 7.02 4 6 C3.34 6 2.68 6 2 6 C0 3 0 3 0 0 Z " fill="#14151A" transform="translate(524,349)"/>
<path d="M0 0 C-0.30005448 3.13808362 -0.52560422 4.58619071 -2.94604492 6.69750977 C-3.78240479 7.19049561 -4.61876465 7.68348145 -5.48046875 8.19140625 C-6.39763672 8.74376953 -7.31480469 9.29613281 -8.25976562 9.86523438 C-9.22591797 10.42533203 -10.19207031 10.98542969 -11.1875 11.5625 C-13.07723613 12.68810865 -14.9665695 13.81439379 -16.85546875 14.94140625 C-17.7479834 15.46621582 -18.64049805 15.99102539 -19.56005859 16.53173828 C-21.6081355 17.7641912 -23.58501071 19.04464201 -25.55078125 20.40234375 C-28 22 -28 22 -30 22 C-28.47115173 17.80038592 -25.78055616 16.21885531 -22.125 13.8125 C-20.95154096 13.03101919 -19.77970459 12.24709717 -18.609375 11.4609375 C-18.01189453 11.0597168 -17.41441406 10.65849609 -16.79882812 10.24511719 C-12.89874621 7.54554908 -9.19219582 4.57833051 -5.4609375 1.65234375 C-3 0 -3 0 0 0 Z " fill="#111111" transform="translate(596,391)"/>
<path d="M0 0 C1.89213369 2.38573379 3.02391783 4.07175348 4 7 C3.56274414 9.0847168 3.56274414 9.0847168 2.78515625 11.44921875 C2.37426758 12.72055664 2.37426758 12.72055664 1.95507812 14.01757812 C1.66052734 14.89865234 1.36597656 15.77972656 1.0625 16.6875 C0.77181641 17.58017578 0.48113281 18.47285156 0.18164062 19.39257812 C-0.53769987 21.59776948 -1.26516672 23.79993258 -2 26 C-2.66 26 -3.32 26 -4 26 C-4.28875 24.783125 -4.5775 23.56625 -4.875 22.3125 C-5.67835792 19.08185352 -6.66265409 16.05679065 -8 13 C-7.50628906 12.64808594 -7.01257813 12.29617188 -6.50390625 11.93359375 C-2.81276596 9.08911341 -1.19528498 7.80717792 -0.0625 3.125 C-0.041875 2.09375 -0.02125 1.0625 0 0 Z " fill="#E7E8E8" transform="translate(516,355)"/>
<path d="M0 0 C6.06892629 -0.25287193 11.16200408 0.30167391 17 2 C16.34 4.97 15.68 7.94 15 11 C10.55129785 11.39253254 7.85756507 10.15305957 4 8 C4 6.02 4 4.04 4 2 C2.68 1.34 1.36 0.68 0 0 Z " fill="#151619" transform="translate(583,349)"/>
<path d="M0 0 C1 3 1 3 -0.01953125 5.9140625 C-2.35271327 9.54959267 -5.00290625 11.32312439 -8.6875 13.375 C-9.29400391 13.72949219 -9.90050781 14.08398438 -10.52539062 14.44921875 C-12.00880544 15.31357069 -13.50333787 16.15879475 -15 17 C-15.12375 16.360625 -15.2475 15.72125 -15.375 15.0625 C-15.58125 14.381875 -15.7875 13.70125 -16 13 C-16.66 12.67 -17.32 12.34 -18 12 C-14 9 -10 6 -6 3 C-5.25234375 2.40832031 -4.5046875 1.81664062 -3.734375 1.20703125 C-2 0 -2 0 0 0 Z " fill="#16151A" transform="translate(612,378)"/>
<path d="M0 0 C2.35448165 2.55068845 2.98327924 3.71017358 3.1875 7.25 C3.125625 8.1575 3.06375 9.065 3 10 C3.66 10 4.32 10 5 10 C5 10.66 5 11.32 5 12 C9.29 12.33 13.58 12.66 18 13 C18 13.33 18 13.66 18 14 C8.43 14 -1.14 14 -11 14 C-10.67 12.68 -10.34 11.36 -10 10 C-10 10.99 -10 11.98 -10 13 C-7.69 13 -5.38 13 -3 13 C-3.33 10.69 -3.66 8.38 -4 6 C-3.34 5.67 -2.68 5.34 -2 5 C-1.27840576 3.35636866 -0.60648579 1.68949614 0 0 Z " fill="#232427" transform="translate(509,371)"/>
<path d="M0 0 C2 3 2 3 1.53125 6.1953125 C1.20311469 7.50920686 0.85818395 8.81897725 0.5 10.125 C0.31856445 10.81916016 0.13712891 11.51332031 -0.04980469 12.22851562 C-2.234021 20.30831086 -5.08872035 28.15895347 -8 36 C-8.66 35.67 -9.32 35.34 -10 35 C-9.40570096 28.40699507 -7.24901235 22.57157949 -5 16.375 C-4.26779583 14.34223738 -3.5385212 12.30841662 -2.8125 10.2734375 C-2.48894531 9.38060059 -2.16539062 8.48776367 -1.83203125 7.56787109 C-1.01860558 5.05742179 -0.4625201 2.59583565 0 0 Z " fill="#D6D7DC" transform="translate(538,349)"/>
<path d="M0 0 C1.63001953 0.01353516 1.63001953 0.01353516 3.29296875 0.02734375 C4.12441406 0.03894531 4.95585937 0.05054688 5.8125 0.0625 C5.8125 0.3925 5.8125 0.7225 5.8125 1.0625 C2.8425 1.0625 -0.1275 1.0625 -3.1875 1.0625 C-3.1875 2.0525 -3.1875 3.0425 -3.1875 4.0625 C-2.5275 4.3925 -1.8675 4.7225 -1.1875 5.0625 C-1.1875 6.0525 -1.1875 7.0425 -1.1875 8.0625 C-7.9375 9.1875 -7.9375 9.1875 -10.1875 8.0625 C-10.5175 8.7225 -10.8475 9.3825 -11.1875 10.0625 C-12.1775 9.0725 -13.1675 8.0825 -14.1875 7.0625 C-12.85416667 5.72916667 -11.52083333 4.39583333 -10.1875 3.0625 C-9.8575 2.4025 -9.5275 1.7425 -9.1875 1.0625 C-5.90230525 -0.03256492 -3.45086585 -0.03710608 0 0 Z " fill="#020408" transform="translate(434.1875,349.9375)"/>
<path d="M0 0 C1.10546875 1.51953125 1.10546875 1.51953125 2 4 C1.56933872 6.68064675 1.04454833 9.09216557 0.3125 11.6875 C0.12333008 12.39777344 -0.06583984 13.10804688 -0.26074219 13.83984375 C-1.64655599 18.9624472 -3.21488506 24.00167817 -5 29 C-5.99 28.34 -6.98 27.68 -8 27 C-5.62971149 17.90425874 -2.84301919 8.95607231 0 0 Z " fill="#CCCBCE" transform="translate(281,349)"/>
<path d="M0 0 C7.59 0 15.18 0 23 0 C19.17212392 3.82787608 16.73188436 5.67707495 12 8 C11.01 7.67 10.02 7.34 9 7 C10.32 6.34 11.64 5.68 13 5 C13 4.01 13 3.02 13 2 C8.71 1.67 4.42 1.34 0 1 C0 0.67 0 0.34 0 0 Z " fill="#232325" transform="translate(680,329)"/>
<path d="M0 0 C0.33 0.66 0.66 1.32 1 2 C1.66 2 2.32 2 3 2 C2.690625 2.99 2.38125 3.98 2.0625 5 C1.25243294 7.76772912 0.8176361 10.37971885 0.5625 13.25 C0 17 0 17 -1.3125 18.875 C-3.14671736 20.09781157 -4.98877051 21.09841437 -7 22 C-7 17.61573976 -6.42441031 16.74006983 -4.0625 13.25 C-1.16566438 8.65595952 -0.19977907 5.39403486 0 0 Z " fill="#E3E4E6" transform="translate(368,360)"/>
<path d="M0 0 C0.66 1.32 1.32 2.64 2 4 C-0.05952358 5.29662538 -2.12237057 6.58735727 -4.1875 7.875 C-4.76564453 8.23980469 -5.34378906 8.60460937 -5.93945312 8.98046875 C-9.20278033 11.0085252 -12.38059362 12.70492051 -16 14 C-14.49054818 9.63158646 -11.13366908 7.72754266 -7.4375 5.3125 C-3.53130683 2.88490617 -3.53130683 2.88490617 0 0 Z " fill="#1B1B1B" transform="translate(582,399)"/>
<path d="M0 0 C4.95 0 9.9 0 15 0 C14.34 1.32 13.68 2.64 13 4 C9.04 4 5.08 4 1 4 C0.67 2.68 0.34 1.36 0 0 Z " fill="#F8F9F9" transform="translate(549,371)"/>
<path d="M0 0 C3.55780196 0.60990891 6.6828589 1.5783681 10 3 C10 3.99 10 4.98 10 6 C5.71 6 1.42 6 -3 6 C-2.34 5.67 -1.68 5.34 -1 5 C-1.33 4.01 -1.66 3.02 -2 2 C-1.34 2 -0.68 2 0 2 C0 1.34 0 0.68 0 0 Z " fill="#F1F1F2" transform="translate(56,369)"/>
<path d="M0 0 C3.96 0 7.92 0 12 0 C11.67 1.98 11.34 3.96 11 6 C8.03 6 5.06 6 2 6 C4 2 4 2 5 1 C3.35 1 1.7 1 0 1 C0 0.67 0 0.34 0 0 Z " fill="#040605" transform="translate(552,364)"/>
<path d="M0 0 C1.65 0 3.3 0 5 0 C5.33 1.65 5.66 3.3 6 5 C2.93882432 7.62386487 2.26826873 8 -2 8 C-1.125 2.25 -1.125 2.25 0 0 Z " fill="#E0E3E4" transform="translate(176,356)"/>
<path d="M0 0 C2.97 0.495 2.97 0.495 6 1 C5.6875 3.375 5.6875 3.375 5 6 C2 8 2 8 -2 8 C-1.125 2.25 -1.125 2.25 0 0 Z " fill="#DEE0E3" transform="translate(496,356)"/>
<path d="M0 0 C1.32 0.66 2.64 1.32 4 2 C3.01 5.63 2.02 9.26 1 13 C-0.32 12.34 -1.64 11.68 -3 11 C-2.01 7.37 -1.02 3.74 0 0 Z " fill="#D5D6D7" transform="translate(321,372)"/>
<path d="M0 0 C0.33 0 0.66 0 1 0 C1 3.3 1 6.6 1 10 C-1.31 10 -3.62 10 -6 10 C-4.63201951 6.0100569 -2.79608023 3.15686477 0 0 Z " fill="#F4F6F9" transform="translate(136,362)"/>
<path d="M0 0 C-0.99 0.495 -0.99 0.495 -2 1 C-2.433125 2.2375 -2.433125 2.2375 -2.875 3.5 C-4 6 -4 6 -5.9375 6.8125 C-8 7 -8 7 -11 7 C-11 6.01 -11 5.02 -11 4 C-4.88986784 -1.46696035 -4.88986784 -1.46696035 0 0 Z " fill="#1C1F22" transform="translate(68,351)"/>
<path d="M0 0 C1.134375 0.020625 2.26875 0.04125 3.4375 0.0625 C3.7675 0.7225 4.0975 1.3825 4.4375 2.0625 C4.1075 2.7225 3.7775 3.3825 3.4375 4.0625 C2.7775 4.0625 2.1175 4.0625 1.4375 4.0625 C1.4375 4.7225 1.4375 5.3825 1.4375 6.0625 C-0.2125 5.7325 -1.8625 5.4025 -3.5625 5.0625 C-4.125 3.125 -4.125 3.125 -4.5625 1.0625 C-3.5625 0.0625 -3.5625 0.0625 0 0 Z " fill="#F0F3F5" transform="translate(588.5625,357.9375)"/>
<path d="M0 0 C0 1.98 0 3.96 0 6 C-2.07553648 6.5534764 -3.84365964 7 -6 7 C-8.0078864 7.64252365 -10.00882592 8.30741771 -12 9 C-3.5 0 -3.5 0 0 0 Z " fill="#16181C" transform="translate(661,341)"/>
<path d="M0 0 C1.32 1.65 2.64 3.3 4 5 C2.35 6.98 0.7 8.96 -1 11 C-1.33 10.01 -1.66 9.02 -2 8 C-1.34 8 -0.68 8 0 8 C0 7.34 0 6.68 0 6 C-2.475 7.485 -2.475 7.485 -5 9 C-3.50163895 5.88801935 -1.80066242 2.9465385 0 0 Z " fill="#E9EBE9" transform="translate(121,355)"/>
<path d="M0 0 C0 3 0 3 -2 5.1875 C-2.66 5.785625 -3.32 6.38375 -4 7 C-3.67 7.66 -3.34 8.32 -3 9 C-3.66 9 -4.32 9 -5 9 C-5.33 9.66 -5.66 10.32 -6 11 C-6.99 9.68 -7.98 8.36 -9 7 C-6.03 4.69 -3.06 2.38 0 0 Z " fill="#131619" transform="translate(633,361)"/>
<path d="M0 0 C0.66 0 1.32 0 2 0 C2 0.66 2 1.32 2 2 C2.99 2.33 3.98 2.66 5 3 C4.01 4.485 4.01 4.485 3 6 C2.34 6 1.68 6 1 6 C1 6.66 1 7.32 1 8 C-0.32 8 -1.64 8 -3 8 C-2.25 3.25 -2.25 3.25 0 1 C0 0.67 0 0.34 0 0 Z " fill="#020408" transform="translate(631,364)"/>
<path d="M0 0 C0.99 0.66 1.98 1.32 3 2 C2.01 5.63 1.02 9.26 0 13 C-0.99 12.34 -1.98 11.68 -3 11 C-2.01 7.37 -1.02 3.74 0 0 Z " fill="#BFBEC3" transform="translate(276,365)"/>
<path d="M0 0 C2 2 2 2 2 5 C1 7.1875 1 7.1875 0 9 C-1.98 9 -3.96 9 -6 9 C-4.02 6.03 -2.04 3.06 0 0 Z " fill="#15161A" transform="translate(131,351)"/>
<path d="M0 0 C0 0.66 0 1.32 0 2 C-4.1 5.075 -4.1 5.075 -7.25 4.8125 C-9 4 -9 4 -10 2 C-6.3558226 -0.4294516 -4.28758728 -0.16179575 0 0 Z " fill="#0C0B0F" transform="translate(610,385)"/>
<path d="M0 0 C2 3 2 3 1.609375 6.1015625 C1.32578125 7.26429688 1.0421875 8.42703125 0.75 9.625 C0.47671875 10.79289062 0.2034375 11.96078125 -0.078125 13.1640625 C-0.38234375 14.09992188 -0.6865625 15.03578125 -1 16 C-1.66 16.33 -2.32 16.66 -3 17 C-2.54775239 11.08507728 -1.8417395 5.64800112 0 0 Z " fill="#DAD9DE" transform="translate(538,349)"/>
<path d="M0 0 C3.63 0 7.26 0 11 0 C10.67 0.99 10.34 1.98 10 3 C6.7 3 3.4 3 0 3 C0 2.01 0 1.02 0 0 Z " fill="#F8FBFB" transform="translate(553,359)"/>
<path d="M0 0 C0.99 0.33 1.98 0.66 3 1 C2.01 2.485 2.01 2.485 1 4 C0.34 4 -0.32 4 -1 4 C-1.66 6.97 -2.32 9.94 -3 13 C-3.66 12.67 -4.32 12.34 -5 12 C-4.45119974 8.06693147 -3.74199701 4.58646443 -2 1 C-1.34 0.67 -0.68 0.34 0 0 Z " fill="#D1D1D4" transform="translate(417,351)"/>
<path d="M0 0 C0.103125 0.639375 0.20625 1.27875 0.3125 1.9375 C0.539375 2.618125 0.76625 3.29875 1 4 C1.99 4.33 2.98 4.66 4 5 C4.99 5.33 5.98 5.66 7 6 C7 6.66 7 7.32 7 8 C5.0085944 8.38133299 3.00720923 8.71325582 1 9 C0 8 0 8 -0.09765625 6.15234375 C-0.06510417 4.1015625 -0.03255208 2.05078125 0 0 Z " fill="#E4E5E7" transform="translate(384,366)"/>
<path d="M0 0 C1.32 0.33 2.64 0.66 4 1 C3.01 2.485 3.01 2.485 2 4 C-1.2578125 4.29296875 -1.2578125 4.29296875 -5.125 4.1875 C-7.04699219 4.14689453 -7.04699219 4.14689453 -9.0078125 4.10546875 C-9.99523437 4.07066406 -10.98265625 4.03585937 -12 4 C-11.67 3.01 -11.34 2.02 -11 1 C-11 1.66 -11 2.32 -11 3 C-7.7 3 -4.4 3 -1 3 C-0.67 2.01 -0.34 1.02 0 0 Z " fill="#E7E9E9" transform="translate(564,359)"/>
<path d="M0 0 C0.33 0 0.66 0 1 0 C1.22223194 2.74086056 1.34781139 4.43963721 -0.125 6.8125 C-2.77535957 8.49106106 -4.93246424 8.20450238 -8 8 C-7.236875 7.4225 -6.47375 6.845 -5.6875 6.25 C-3.33393891 4.27957676 -1.76530467 2.47142654 0 0 Z " fill="#DCDEDD" transform="translate(595,375)"/>
<path d="M0 0 C0 1.65 0 3.3 0 5 C-1.98 5.66 -3.96 6.32 -6 7 C-6 6.34 -6 5.68 -6 5 C-6.66 4.67 -7.32 4.34 -8 4 C-3.375 0 -3.375 0 0 0 Z " fill="#010407" transform="translate(439,371)"/>
<path d="M0 0 C1.32 0.66 2.64 1.32 4 2 C2.71186658 2.83878455 1.41936744 3.67086783 0.125 4.5 C-0.59429688 4.9640625 -1.31359375 5.428125 -2.0546875 5.90625 C-4 7 -4 7 -6 7 C-4.60667426 3.63279613 -3.0210714 2.0140476 0 0 Z " fill="#424242" transform="translate(572,406)"/>
<path d="M0 0 C0.33 1.32 0.66 2.64 1 4 C-1.64738916 5.4606285 -2.89448334 6 -6 6 C-5.8125 4.125 -5.8125 4.125 -5 2 C-2.4375 0.75 -2.4375 0.75 0 0 Z " fill="#17181C" transform="translate(355,378)"/>
<path d="M0 0 C4.22797927 2.99481865 4.22797927 2.99481865 6 5 C6.375 8.3125 6.375 8.3125 6 11 C5.67 11 5.34 11 5 11 C5 9.35 5 7.7 5 6 C4.01 6.33 3.02 6.66 2 7 C2 6.34 2 5.68 2 5 C1.34 5 0.68 5 0 5 C0 3.35 0 1.7 0 0 Z " fill="#303134" transform="translate(75,365)"/>
<path d="M0 0 C0.99 0.33 1.98 0.66 3 1 C2.34 3.31 1.68 5.62 1 8 C0.01 8 -0.98 8 -2 8 C-1.34 5.36 -0.68 2.72 0 0 Z " fill="#1C1B1F" transform="translate(260,368)"/>
<path d="M0 0 C1.89213369 2.38573379 3.02391783 4.07175348 4 7 C3.01 8.485 3.01 8.485 2 10 C1.34 10 0.68 10 0 10 C-1.231394 6.30581799 -0.64432764 3.7943739 0 0 Z " fill="#DADCDB" transform="translate(516,355)"/>
<path d="M0 0 C0.99 0.33 1.98 0.66 3 1 C3 1.66 3 2.32 3 3 C1.02 3.99 -0.96 4.98 -3 6 C-3 4.68 -3 3.36 -3 2 C-2.01 1.34 -1.02 0.68 0 0 Z " fill="#090C0D" transform="translate(687,335)"/>
<path d="M0 0 C0.66 0.66 1.32 1.32 2 2 C1.96712417 4.72869407 1.43602229 7.2966618 1 10 C0.896875 9.360625 0.79375 8.72125 0.6875 8.0625 C0.460625 7.381875 0.23375 6.70125 0 6 C-0.99 5.67 -1.98 5.34 -3 5 C-2.01 3.35 -1.02 1.7 0 0 Z " fill="#CDCED1" transform="translate(407,373)"/>
<path d="M0 0 C0.33 0.99 0.66 1.98 1 3 C0.34 3.66 -0.32 4.32 -1 5 C0.32 5.99 1.64 6.98 3 8 C0.69 8 -1.62 8 -4 8 C-2.87548273 5.0280615 -1.77706209 2.66559313 0 0 Z " fill="#D5D7DB" transform="translate(134,364)"/>
<path d="M0 0 C0.33 0 0.66 0 1 0 C1.125 2.875 1.125 2.875 1 6 C0.34 6.66 -0.32 7.32 -1 8 C-1.66 7.34 -2.32 6.68 -3 6 C-2.63318342 3.06546739 -2.13562754 2.13562754 0 0 Z " fill="#EDEDEE" transform="translate(325,366)"/>
<path d="M0 0 C0.99 0.33 1.98 0.66 3 1 C0.63707344 3.52588702 -0.66462511 4.88820837 -4 6 C-4.33 5.01 -4.66 4.02 -5 3 C-2.6875 1.4375 -2.6875 1.4375 0 0 Z " fill="#EAEEEC" transform="translate(629,361)"/>
<path d="M0 0 C1.65 0 3.3 0 5 0 C4.34 0.61875 3.68 1.2375 3 1.875 C0.7715451 3.75637427 0.7715451 3.75637427 1 6 C1.66 6.66 2.32 7.32 3 8 C2.01 8.33 1.02 8.66 0 9 C-1 8 -1 8 -1.125 5.0625 C-1 2 -1 2 0 0 Z " fill="#17191B" transform="translate(69,356)"/>
<path d="M0 0 C2.475 0.99 2.475 0.99 5 2 C4.34 3.32 3.68 4.64 3 6 C2.67 5.34 2.34 4.68 2 4 C1.34 4 0.68 4 0 4 C-0.33 4.99 -0.66 5.98 -1 7 C-1.33 6.34 -1.66 5.68 -2 5 C-1.0625 2.375 -1.0625 2.375 0 0 Z " fill="#25262B" transform="translate(266,350)"/>
<path d="M0 0 C0.33 0.99 0.66 1.98 1 3 C0.67 3.66 0.34 4.32 0 5 C-2.32156597 5.40729228 -4.6568787 5.74438677 -7 6 C-2.25 1.125 -2.25 1.125 0 0 Z " fill="#191B1E" transform="translate(644,353)"/>
<path d="M0 0 C0.99 0 1.98 0 3 0 C2.67 2.64 2.34 5.28 2 8 C1.67 6.68 1.34 5.36 1 4 C0.34 4 -0.32 4 -1 4 C-0.67 2.68 -0.34 1.36 0 0 Z " fill="#CFCFD0" transform="translate(329,350)"/>
<path d="M0 0 C0.33 0.66 0.66 1.32 1 2 C0.01 2.61875 -0.98 3.2375 -2 3.875 C-2.99 4.57625 -3.98 5.2775 -5 6 C-5 6.66 -5 7.32 -5 8 C-5.66 8 -6.32 8 -7 8 C-7.33 7.01 -7.66 6.02 -8 5 C-4.04 2.525 -4.04 2.525 0 0 Z " fill="#E3E3E5" transform="translate(607,388)"/>
<path d="M0 0 C1.32 1.32 2.64 2.64 4 4 C1.525 5.485 1.525 5.485 -1 7 C-1 4.37886292 -0.68707555 2.49064888 0 0 Z " fill="#EDEDF0" transform="translate(597,382)"/>
<path d="M0 0 C0.66 0.99 1.32 1.98 2 3 C-2.75 6 -2.75 6 -5 6 C-5 4.68 -5 3.36 -5 2 C-3.35 2 -1.7 2 0 2 C0 1.34 0 0.68 0 0 Z " fill="#0C0C11" transform="translate(616,379)"/>
<path d="M0 0 C-1.32 1.32 -2.64 2.64 -4 4 C-4.99 3.67 -5.98 3.34 -7 3 C-6.67 2.01 -6.34 1.02 -6 0 C-3.50907189 -1.24546405 -2.58919267 -0.7767578 0 0 Z " fill="#ECEBEC" transform="translate(407,380)"/>
<path d="M0 0 C1.32 0.66 2.64 1.32 4 2 C3.67 3.65 3.34 5.3 3 7 C2.67 6.01 2.34 5.02 2 4 C1.01 4.33 0.02 4.66 -1 5 C-0.67 3.35 -0.34 1.7 0 0 Z " fill="#CCCCCE" transform="translate(321,372)"/>
<path d="M0 0 C0.95930163 3.8372065 1.15195929 5.35212892 0 9 C-0.99 9.66 -1.98 10.32 -3 11 C-2.01 7.37 -1.02 3.74 0 0 Z " fill="#39383D" transform="translate(398,357)"/>
<path d="M0 0 C0.99 0.33 1.98 0.66 3 1 C2.34 3.31 1.68 5.62 1 8 C0.34 7.67 -0.32 7.34 -1 7 C-0.67 4.69 -0.34 2.38 0 0 Z " fill="#BEBEC1" transform="translate(529,377)"/>
<path d="M0 0 C0.66 0.33 1.32 0.66 2 1 C1.34 2.32 0.68 3.64 0 5 C-0.66 5 -1.32 5 -2 5 C-2.33 5.66 -2.66 6.32 -3 7 C-3.66 6.01 -4.32 5.02 -5 4 C-3.35 2.68 -1.7 1.36 0 0 Z " fill="#1B1C1E" transform="translate(618,372)"/>
<path d="M0 0 C1.9375 0.3125 1.9375 0.3125 4 1 C4.33 1.99 4.66 2.98 5 4 C3.35 4 1.7 4 0 4 C0 2.68 0 1.36 0 0 Z " fill="#F7F8FA" transform="translate(573,371)"/>
<path d="M0 0 C0.33 0.99 0.66 1.98 1 3 C-0.65 4.65 -2.3 6.3 -4 8 C-4.66 7.67 -5.32 7.34 -6 7 C-4.02 4.69 -2.04 2.38 0 0 Z " fill="#232424" transform="translate(124,360)"/>
<path d="M0 0 C-1 3 -1 3 -3.0625 4.1875 C-3.701875 4.455625 -4.34125 4.72375 -5 5 C-5 5.66 -5 6.32 -5 7 C-5.66 7 -6.32 7 -7 7 C-7 5.68 -7 4.36 -7 3 C-2.92857143 0 -2.92857143 0 0 0 Z " fill="#DEDFDF" transform="translate(656,359)"/>
<path d="M0 0 C2.31 0 4.62 0 7 0 C7 0.33 7 0.66 7 1 C5.35 1 3.7 1 2 1 C2 2.32 2 3.64 2 5 C1.01 4.67 0.02 4.34 -1 4 C-0.67 2.68 -0.34 1.36 0 0 Z " fill="#ABAFB1" transform="translate(585,358)"/>
<path d="M0 0 C1.98 0.495 1.98 0.495 4 1 C3.34 2.65 2.68 4.3 2 6 C1.01 4.68 0.02 3.36 -1 2 C-0.67 1.34 -0.34 0.68 0 0 Z " fill="#15181B" transform="translate(421,351)"/>
<path d="M0 0 C2.31 0.33 4.62 0.66 7 1 C5.35 2.32 3.7 3.64 2 5 C0 2 0 2 0 0 Z " fill="#111416" transform="translate(667,346)"/>
</svg>
